<svg width="80" height="76" viewBox="0 0 80 76" fill="none" xmlns="http://www.w3.org/2000/svg">
<path d="M17 75.5C13.875 75.5 10.7848 74.7361 7.72921 73.2083C4.67365 71.6806 2.20837 69.6667 0.333374 67.1667C2.13893 67.1667 3.97921 66.4549 5.85421 65.0312C7.72921 63.6076 8.66671 61.5417 8.66671 58.8333C8.66671 55.3611 9.88198 52.4097 12.3125 49.9792C14.7431 47.5486 17.6945 46.3333 21.1667 46.3333C24.6389 46.3333 27.5903 47.5486 30.0209 49.9792C32.4514 52.4097 33.6667 55.3611 33.6667 58.8333C33.6667 63.4167 32.0348 67.3403 28.7709 70.6042C25.507 73.8681 21.5834 75.5 17 75.5ZM17 67.1667C19.2917 67.1667 21.2535 66.3507 22.8855 64.7188C24.5174 63.0868 25.3334 61.125 25.3334 58.8333C25.3334 57.6528 24.9341 56.6632 24.1355 55.8646C23.3368 55.066 22.3473 54.6667 21.1667 54.6667C19.9862 54.6667 18.9966 55.066 18.198 55.8646C17.3993 56.6632 17 57.6528 17 58.8333C17 60.4306 16.8091 61.8889 16.4271 63.2083C16.0452 64.5278 15.5417 65.7778 14.9167 66.9583C15.2639 67.0972 15.6112 67.1667 15.9584 67.1667H17ZM40.9584 50.5L29.5 39.0417L66.7917 1.75C67.5556 0.986107 68.5105 0.586801 69.6563 0.552079C70.8021 0.517357 71.7917 0.916662 72.625 1.75L78.25 7.375C79.0834 8.20833 79.5 9.18055 79.5 10.2917C79.5 11.4028 79.0834 12.375 78.25 13.2083L40.9584 50.5Z" fill="black"/>
</svg>
