<svg width="76" height="76" viewBox="0 0 76 76" fill="none" xmlns="http://www.w3.org/2000/svg">
<path d="M28.625 75.5C25.0833 75.5 22.0278 74.2674 19.4583 71.8021C16.8889 69.3368 15.4306 66.3681 15.0833 62.8958C10.9167 62.3403 7.44444 60.5 4.66667 57.375C1.88889 54.25 0.5 50.5694 0.5 46.3333C0.5 44.875 0.690972 43.434 1.07292 42.0104C1.45486 40.5868 2.02778 39.25 2.79167 38C2.02778 36.75 1.45486 35.4306 1.07292 34.0417C0.690972 32.6528 0.5 31.1944 0.5 29.6667C0.5 25.4306 1.88889 21.7674 4.66667 18.6771C7.44444 15.5868 10.8819 13.7639 14.9792 13.2083C15.1875 9.66667 16.6111 6.66319 19.25 4.19792C21.8889 1.73264 25.0139 0.5 28.625 0.5C30.4306 0.5 32.1146 0.847222 33.6771 1.54167C35.2396 2.23611 36.6806 3.17361 38 4.35417C39.25 3.17361 40.6736 2.23611 42.2708 1.54167C43.8681 0.847222 45.5694 0.5 47.375 0.5C50.9861 0.5 54.0937 1.71528 56.6979 4.14583C59.3021 6.57639 60.7083 9.5625 60.9167 13.1042C65.0139 13.6597 68.4688 15.5 71.2812 18.625C74.0938 21.75 75.5 25.4306 75.5 29.6667C75.5 31.1944 75.309 32.6528 74.9271 34.0417C74.5451 35.4306 73.9722 36.75 73.2083 38C73.9722 39.25 74.5451 40.5868 74.9271 42.0104C75.309 43.434 75.5 44.875 75.5 46.3333C75.5 50.6389 74.0938 54.3368 71.2812 57.4271C68.4688 60.5174 64.9792 62.3403 60.8125 62.8958C60.4653 66.3681 59.0243 69.3368 56.4896 71.8021C53.9549 74.2674 50.9167 75.5 47.375 75.5C45.6389 75.5 43.9549 75.1701 42.3229 74.5104C40.691 73.8507 39.25 72.9306 38 71.75C36.6806 72.9306 35.2222 73.8507 33.625 74.5104C32.0278 75.1701 30.3611 75.5 28.625 75.5ZM42.1667 14.0417V61.9583C42.1667 63.4167 42.6701 64.6493 43.6771 65.6562C44.684 66.6632 45.9167 67.1667 47.375 67.1667C48.7639 67.1667 49.9618 66.6111 50.9688 65.5C51.9757 64.3889 52.5139 63.1389 52.5833 61.75C51.125 61.1944 49.7882 60.4479 48.5729 59.5104C47.3576 58.5729 46.2639 57.4444 45.2917 56.125C44.5972 55.1528 44.3368 54.1111 44.5104 53C44.684 51.8889 45.2569 50.9861 46.2292 50.2917C47.2014 49.5972 48.2431 49.3368 49.3542 49.5104C50.4653 49.684 51.3681 50.2569 52.0625 51.2292C52.8264 52.3403 53.7986 53.191 54.9792 53.7812C56.1597 54.3715 57.4444 54.6667 58.8333 54.6667C61.125 54.6667 63.0868 53.8507 64.7188 52.2188C66.3507 50.5868 67.1667 48.625 67.1667 46.3333C67.1667 45.9861 67.1493 45.6389 67.1146 45.2917C67.0799 44.9444 66.9931 44.5972 66.8542 44.25C65.6736 44.9444 64.4062 45.4653 63.0521 45.8125C61.6979 46.1597 60.2917 46.3333 58.8333 46.3333C57.6528 46.3333 56.6632 45.934 55.8646 45.1354C55.066 44.3368 54.6667 43.3472 54.6667 42.1667C54.6667 40.9861 55.066 39.9965 55.8646 39.1979C56.6632 38.3993 57.6528 38 58.8333 38C61.125 38 63.0868 37.184 64.7188 35.5521C66.3507 33.9201 67.1667 31.9583 67.1667 29.6667C67.1667 27.375 66.3507 25.4306 64.7188 23.8333C63.0868 22.2361 61.125 21.4028 58.8333 21.3333C58.0694 22.5833 57.0799 23.6771 55.8646 24.6146C54.6493 25.5521 53.3125 26.2986 51.8542 26.8542C50.7431 27.2708 49.6667 27.2361 48.625 26.75C47.5833 26.2639 46.8889 25.4653 46.5417 24.3542C46.1944 23.2431 46.2465 22.1667 46.6979 21.125C47.1493 20.0833 47.9306 19.3889 49.0417 19.0417C50.0833 18.6944 50.934 18.0694 51.5938 17.1667C52.2535 16.2639 52.5833 15.2222 52.5833 14.0417C52.5833 12.5833 52.0799 11.3507 51.0729 10.3438C50.066 9.33681 48.8333 8.83333 47.375 8.83333C45.9167 8.83333 44.684 9.33681 43.6771 10.3438C42.6701 11.3507 42.1667 12.5833 42.1667 14.0417ZM33.8333 61.9583V14.0417C33.8333 12.5833 33.3299 11.3507 32.3229 10.3438C31.316 9.33681 30.0833 8.83333 28.625 8.83333C27.1667 8.83333 25.934 9.33681 24.9271 10.3438C23.9201 11.3507 23.4167 12.5833 23.4167 14.0417C23.4167 15.1528 23.7292 16.1771 24.3542 17.1146C24.9792 18.0521 25.8125 18.6944 26.8542 19.0417C27.9653 19.3889 28.7639 20.0833 29.25 21.125C29.7361 22.1667 29.8056 23.2431 29.4583 24.3542C29.0417 25.4653 28.3125 26.2639 27.2708 26.75C26.2292 27.2361 25.1528 27.2708 24.0417 26.8542C22.5833 26.2986 21.2465 25.5521 20.0312 24.6146C18.816 23.6771 17.8264 22.5833 17.0625 21.3333C14.8403 21.4028 12.9132 22.2535 11.2812 23.8854C9.64931 25.5174 8.83333 27.4444 8.83333 29.6667C8.83333 31.9583 9.64931 33.9201 11.2812 35.5521C12.9132 37.184 14.875 38 17.1667 38C18.3472 38 19.3368 38.3993 20.1354 39.1979C20.934 39.9965 21.3333 40.9861 21.3333 42.1667C21.3333 43.3472 20.934 44.3368 20.1354 45.1354C19.3368 45.934 18.3472 46.3333 17.1667 46.3333C15.7083 46.3333 14.3021 46.1597 12.9479 45.8125C11.5937 45.4653 10.3264 44.9444 9.14583 44.25C9.00694 44.5972 8.92014 44.9444 8.88542 45.2917C8.85069 45.6389 8.83333 45.9861 8.83333 46.3333C8.83333 48.625 9.64931 50.5868 11.2812 52.2188C12.9132 53.8507 14.875 54.6667 17.1667 54.6667C18.5556 54.6667 19.8403 54.3715 21.0208 53.7812C22.2014 53.191 23.1736 52.3403 23.9375 51.2292C24.6319 50.2569 25.5347 49.684 26.6458 49.5104C27.7569 49.3368 28.7986 49.5972 29.7708 50.2917C30.7431 50.9861 31.316 51.8889 31.4896 53C31.6632 54.1111 31.4028 55.1528 30.7083 56.125C29.7361 57.4444 28.625 58.5903 27.375 59.5625C26.125 60.5347 24.7708 61.2986 23.3125 61.8542C23.3819 63.2431 23.9375 64.4757 24.9792 65.5521C26.0208 66.6285 27.2361 67.1667 28.625 67.1667C30.0833 67.1667 31.316 66.6632 32.3229 65.6562C33.3299 64.6493 33.8333 63.4167 33.8333 61.9583Z" fill="black"/>
</svg>
