<svg width="80" height="84" viewBox="0 0 80 84" fill="none" xmlns="http://www.w3.org/2000/svg">
<path d="M39.1458 56.6875C44.0069 56.6875 48.1389 55.125 51.5417 52C54.9444 48.875 56.6458 45.0903 56.6458 40.6458C56.6458 36.6875 55.3785 33.3368 52.8438 30.5938C50.309 27.8507 47.2361 26.4792 43.625 26.4792C40.3611 26.4792 37.6007 27.5208 35.3438 29.6042C33.0868 31.6875 31.9583 34.257 31.9583 37.3125C31.9583 38.632 32.2188 39.9167 32.7396 41.1667C33.2604 42.4167 34.0069 43.5625 34.9792 44.6042L40.9167 38.6667C40.7083 38.5278 40.5521 38.3542 40.4479 38.1458C40.3438 37.9375 40.2917 37.6945 40.2917 37.4167C40.2917 36.6528 40.6042 36.0451 41.2292 35.5938C41.8542 35.1424 42.6528 34.9167 43.625 34.9167C45.0139 34.9167 46.1597 35.4896 47.0625 36.6354C47.9653 37.7813 48.4167 39.1528 48.4167 40.75C48.4167 42.9028 47.5312 44.7257 45.7604 46.2188C43.9896 47.7118 41.8194 48.4583 39.25 48.4583C35.9861 48.4583 33.2257 47.1389 30.9688 44.5C28.7118 41.8611 27.5833 38.632 27.5833 34.8125C27.5833 32.7986 27.9653 30.8715 28.7292 29.0313C29.4931 27.191 30.5694 25.5764 31.9583 24.1875L26.0208 18.25C23.7986 20.4028 22.0972 22.9028 20.9167 25.75C19.7361 28.5972 19.1458 31.5833 19.1458 34.7083C19.1458 40.8195 21.0903 46.0104 24.9792 50.2813C28.8681 54.5521 33.5903 56.6875 39.1458 56.6875ZM13 83.6667V65.75C9.04167 62.1389 5.96875 57.9201 3.78125 53.0938C1.59375 48.2674 0.5 43.1806 0.5 37.8333C0.5 27.4167 4.14583 18.5625 11.4375 11.2708C18.7292 3.97917 27.5833 0.333336 38 0.333336C46.6806 0.333336 54.3715 2.88542 61.0729 7.98959C67.7743 13.0938 72.1319 19.7431 74.1458 27.9375L79.5625 49.2917C79.9097 50.6111 79.6667 51.809 78.8333 52.8854C78 53.9618 76.8889 54.5 75.5 54.5H67.1667V67C67.1667 69.2917 66.3507 71.2535 64.7188 72.8854C63.0868 74.5174 61.125 75.3333 58.8333 75.3333H50.5V83.6667H42.1667V67H58.8333V46.1667H70.0833L66.125 30.0208C64.5278 23.7014 61.125 18.5625 55.9167 14.6042C50.7083 10.6458 44.7361 8.66667 38 8.66667C29.9444 8.66667 23.0694 11.4792 17.375 17.1042C11.6806 22.7292 8.83333 29.5694 8.83333 37.625C8.83333 41.7917 9.68403 45.75 11.3854 49.5C13.0868 53.25 15.5 56.5833 18.625 59.5L21.3333 62V83.6667H13Z" fill="black"/>
</svg>
